inDegrees=yes
name=ik_S41_A03_T01
DataType=double
version=3
OpenSimVersion=4.3-2021-08-27-4bc7ad9
endheader
time	pelvis_tilt	pelvis_list	pelvis_rotation	pelvis_tx	pelvis_ty	pelvis_tz	hip_flexion_r	hip_adduction_r	hip_rotation_r	knee_angle_r	knee_angle_r_beta	ankle_angle_r	subtalar_angle_r	mtp_angle_r	hip_flexion_l	hip_adduction_l	hip_rotation_l	knee_angle_l	knee_angle_l_beta	ankle_angle_l	subtalar_angle_l	mtp_angle_l	lumbar_extension	lumbar_bending	lumbar_rotation	arm_flex_r	arm_add_r	arm_rot_r	elbow_flex_r	pro_sup_r	wrist_flex_r	wrist_dev_r	arm_flex_l	arm_add_l	arm_rot_l	elbow_flex_l	pro_sup_l	wrist_flex_l	wrist_dev_l
40.74000000000077	-2.677159215874659	2.769195562105406	-92.77149545223762	0	0.9399999999999999	0	19.17439156298206	-1.952579111149654	-2.054671769094121	58.44499298250578	1.020057558849707	0	0	0	4.400029076751506	-0.4836125038446992	-5.8139906223964	-3.065935081593659	-0.05351066182621034	0	0	0	0	0	0	42.89401272436282	-42.89401272436282	4.976872492642031	84.68065093152205	85.02312778078961	0	0	42.89401272436282	-42.89401272436282	4.976872492642031	84.68065093152205	85.02312778078485	0	0
40.76000000000077	-2.71089725054357	2.796578332685461	-92.69953349624457	0	0.9399999999999999	0	20.17403848876922	-1.276891394463292	-2.680141210159231	57.48589462866331	1.003318134724698	0	0	0	4.037870933707797	-0.4180918259307474	-5.430098103967717	-2.784023366276522	-0.04859037419398137	0	0	0	0	0	0	42.89478375021959	-42.89478375021959	4.976889520151273	84.68088605453345	85.02311075328096	0	0	42.89478375021959	-42.89478375021959	4.976889520151273	84.68088605453345	85.02311075327621	0	0
40.78000000000078	-2.823003513391548	2.713206693038459	-92.60550544512751	0	0.9399999999999999	0	20.78461943274046	-0.3317595588831567	-3.559038367864263	55.47575703761598	0.9682346153428146	0	0	0	3.536314407472276	-0.4013118015319481	-5.020843483091442	-2.91109639611296	-0.05080821695511221	0	0	0	0	0	0	42.89549369099155	-42.89549369099155	4.976905179518607	84.68110228565439	85.02309509391416	0	0	42.89549369099155	-42.89549369099155	4.976905179518607	84.68110228565439	85.02309509390942	0	0
40.80000000000078	-2.843711562783051	2.666923694617781	-92.58115085096793	0	0.9399999999999999	0	21.67915252840012	0.3750634447760522	-3.021892281223661	53.0344094588012	0.925625061906905	0	0	0	3.040363577450132	-0.4174651377888139	-4.727175429163704	-2.772838210648467	-0.04839515640092384	0	0	0	0	0	0	42.896150596082	-42.896150596082	4.976919635680989	84.68130190239894	85.02308063775236	0	0	42.896150596082	-42.896150596082	4.976919635680989	84.68130190239894	85.02308063774763	0	0
40.82000000000078	-2.833285031099047	2.597149278582473	-92.44030843455893	0	0.9399999999999999	0	22.68154769166118	1.415782915261028	-1.606793204349307	45.90575035414972	0.8012064892784655	0	0	0	1.995317976169405	-0.4610626987072449	-4.547687790925582	-3.09939443730157	-0.05409463774890935	0	0	0	0	0	0	42.90565218827279	-42.90565218827279	4.977098950211824	84.68377793930804	85.02290132322817	0	0	42.90565218827279	-42.90565218827279	4.977098950211824	84.68377793930804	85.02290132322348	0	0
40.84000000000079	-2.796694931842954	2.618629572648479	-92.20590611433867	0	0.9399999999999999	0	23.51106768824894	2.353164801106625	-0.7511992900419646	44.61131766037887	0.7786143768267048	0	0	0	1.537114361435593	-0.4689609761830328	-4.716767274784029	-2.476488811497799	-0.04322288364943781	0	0	0	0	0	0	42.90650609339325	-42.90650609339325	4.977117749731254	84.68403753091695	85.02288252370944	0	0	42.90650609339325	-42.90650609339325	4.977117749731254	84.68403753091695	85.02288252370474	0	0
40.86000000000079	-2.811343830857176	2.629543907482256	-91.95784715841793	0	0.9399999999999999	0	24.08018909656711	3.318409066691642	-0.2143438259144703	40.66470820214836	0.7097330474902328	0	0	0	1.527082171146393	-0.526001145553347	-4.560546480698901	-2.027505181630302	-0.03538664102069441	0	0	0	0	0	0	42.90741320930753	-42.90741320930753	4.977137678164609	84.68431271101751	85.02286259527688	0	0	42.90741320930753	-42.90741320930753	4.977137678164609	84.68431271101751	85.02286259527217	0	0
40.88000000000079	-2.833947614420459	2.595001328313872	-91.62018258471493	0	0.9399999999999999	0	24.2605520344058	4.006763331324785	-0.590337960127118	36.64147336657469	0.6395143530285394	0	0	0	1.098216327279758	-0.5511607528695645	-4.613340762226757	-2.034809054032728	-0.0355141176422623	0	0	0	0	0	0	42.90831583446937	-42.90831583446937	4.977157468967826	84.68458599064272	85.02284280447441	0	0	42.90831583446937	-42.90831583446937	4.977157468967826	84.68458599064272	85.02284280446972	0	0
40.90000000000079	-2.843161741456978	2.606558523787661	-91.39879141985215	0	0.9399999999999999	0	24.44190727036144	4.733609913560286	-0.7650925551768014	32.52932802330672	0.567743877467961	0	0	0	1.11373359083129	-0.5709089536855557	-4.390848956710985	-1.514475602895092	-0.02643258571164553	0	0	0	0	0	0	42.90919912489166	-42.90919912489166	4.977176781599557	84.68485266745063	85.02282349184341	0	0	42.90919912489166	-42.90919912489166	4.977176781599557	84.68485266745063	85.02282349183872	0	0
40.9200000000008	-2.885193803146001	2.744865893246608	-90.92189610141807	0	0.9399999999999999	0	24.64958317558597	5.264949054915601	-1.161630123371205	28.64975276480646	0.5000325156282214	0	0	0	0.5963295343706295	-0.4927788625765749	-4.259512849192133	-1.428894300887763	-0.024938910213474	0	0	0	0	0	0	42.91018536805483	-42.91018536805483	4.977198391477913	84.68515106560523	85.02280188196589	0	0	42.91018536805483	-42.91018536805483	4.977198391477913	84.68515106560523	85.02280188196121	0	0
40.9400000000008	-2.915532602856546	2.898861293501144	-90.41221636955144	0	0.9399999999999999	0	24.70017999996473	5.588710516225959	-2.050251737369917	26.535028793542	0.4631236195588066	0	0	0	0.3988487813836387	-0.4615839834193784	-3.723213218080304	-1.185534533509722	-0.0206914810058397	0	0	0	0	0	0	42.91094330260248	-42.91094330260248	4.977214892196884	84.6853789143218	85.0227853812476	0	0	42.91094330260248	-42.91094330260248	4.977214892196884	84.6853789143218	85.02278538124293	0	0
40.9600000000008	-2.936710240257403	2.933551293036862	-89.90217414543667	0	0.9399999999999999	0	24.77890835900306	5.989368169041258	-2.628333034960547	22.68094463677318	0.3958571613742414	0	0	0	0.07777250391648367	-0.471810300698086	-3.132282225236455	-0.8906028207552231	-0.01554395154972753	0	0	0	0	0	0	42.91183257713555	-42.91183257713555	4.977234234386295	84.68564599921967	85.02276603905882	0	0	42.91183257713555	-42.91183257713555	4.977234234386295	84.68564599921967	85.02276603905415	0	0
40.98000000000081	-2.930030427781341	2.874631219372056	-89.35734243908631	0	0.9399999999999999	0	24.87678239944699	6.28796970292251	-2.88593563947494	18.9315915103705	0.3304186044985715	0	0	0	-0.2738048818275747	-0.4055414330497712	-2.494044484054782	-0.8366630137450981	-0.01460252431951053	0	0	0	0	0	0	42.91277329270259	-42.91277329270259	4.977254781368429	84.68592972042345	85.0227454920775	0	0	42.91277329270259	-42.91277329270259	4.977254781368429	84.68592972042345	85.02274549207281	0	0
41.00000000000081	-2.900415884172004	2.922576069546746	-89.05961151826513	0	0.9399999999999999	0	25.03357687960969	6.76940340159791	-2.837049422828676	13.53588696245767	0.2362457946726603	0	0	0	-0.5153775119943576	-0.2787977482929949	-2.041736987088333	-0.4025242911968971	-0.007025374200642281	0	0	0	0	0	0	42.91364043938927	-42.91364043938927	4.977273609787821	84.68618971095104	85.02272666365872	0	0	42.91364043938927	-42.91364043938927	4.977273609787821	84.68618971095104	85.02272666365404	0	0
41.02000000000081	-2.848560283843781	2.968674778502745	-88.68484345731922	0	0.9399999999999999	0	24.93438093430074	7.110792363269414	-3.257481902721895	9.879571373767632	0.1724310491580245	0	0	0	-0.7589962287475784	-0.1785371048495954	-1.543498983252321	0.0617406287398963	0.001077577253762628	0	0	0	0	0	0	42.91433372124852	-42.91433372124852	4.977288560963543	84.68639616286293	85.0227117124836	0	0	42.91433372124852	-42.91433372124852	4.977288560963543	84.68639616286293	85.02271171247891	0	0
41.04000000000082	-2.726746699209142	2.916151719556539	-88.37191302752707	0	0.9399999999999999	0	24.31452185465682	7.432855381673839	-4.434089346592729	6.314562024211931	0.1102098981438961	0	0	0	-1.399959055690194	0.1024740517834151	-1.066618062671969	0.351572681224865	0.006136100847438345	0	0	0	0	0	0	42.91526694963478	-42.91526694963478	4.977308973969302	84.68667803406767	85.02269129947865	0	0	42.91526694963478	-42.91526694963478	4.977308973969302	84.68667803406767	85.02269129947398	0	0
41.06000000000082	-2.586868577443404	2.824172591373737	-87.96517666435648	0	0.9399999999999999	0	23.35667673400511	7.694286574198943	-6.459394212247241	3.022842069906995	0.05275854688767766	0	0	0	-1.496949137538243	0.170840643892658	-0.6130305569327794	2.034757472647209	0.03551321737725226	0	0	0	0	0	0	42.91579358705012	-42.91579358705012	4.977323840287404	84.68688331567765	85.02267643316115	0	0	42.91579358705012	-42.91579358705012	4.977323840287404	84.68688331567765	85.02267643315643	0	0
41.08000000000082	-2.428448067961031	2.694636742792645	-87.53624632240366	0	0.9399999999999999	0	22.45931055373553	7.730045412037323	-7.870238682178512	0.3580787479424027	0.006249653133013799	0	0	0	-1.957942498402908	0.3643878064884268	-0.139696913871322	2.189311722565235	0.03821069791127198	0	0	0	0	0	0	42.91666128805514	-42.91666128805514	4.977342821171664	84.6871454115514	85.02265745227761	0	0	42.91666128805514	-42.91666128805514	4.977342821171664	84.6871454115514	85.02265745227294	0	0
41.10000000000083	-2.335893875897832	2.622298775020071	-87.28625695674538	0	0.9399999999999999	0	21.81757335534298	7.765041405241247	-8.071760055899782	-1.910362198706562	-0.03334211027306767	0	0	0	-2.05227280622053	0.4082804732096487	0.07901744514597638	3.018120733923626	0.05267614402967499	0	0	0	0	0	0	42.91717107797833	-42.91717107797833	4.977353797917489	84.68729698290831	85.02264647553221	0	0	42.91717107797833	-42.91717107797833	4.977353797917489	84.68729698290831	85.02264647552758	0	0
41.12000000000083	-2.141717631189985	2.513577482220374	-86.79880449414033	0	0.9399999999999999	0	21.26573776066529	7.522420285611315	-7.922825696802372	-2.9327339524675	-0.05118586355558476	0	0	0	-2.904667414307884	0.6211183775961755	0.3842068870646628	3.225690959649639	0.05629892789770176	0	0	0	0	0	0	42.91752391630084	-42.91752391630084	4.977361520310172	84.68740361689065	85.02263875313984	0	0	42.91752391630084	-42.91752391630084	4.977361520310172	84.68740361689065	85.0226387531352	0	0
41.14000000000083	-1.76652910199818	2.393750507030878	-86.06718058317078	0	0.9399999999999999	0	20.79783148790906	7.085108567892659	-7.707084695816549	-4.159576498885735	-0.07259830539413431	0	0	0	-3.460822011724046	0.9404819820969156	0.9141713598301052	3.744472430345176	0.06535337265967736	0	0	0	0	0	0	42.9179408782196	-42.9179408782196	4.977370647842129	84.68752965361527	85.02262962560825	0	0	42.9179408782196	-42.9179408782196	4.977370647842129	84.68752965361527	85.0226296256036	0	0
41.16000000000084	-1.564231976388521	2.297723504461118	-85.69255762721914	0	0.9399999999999999	0	20.39210751025	7.088412326316652	-6.975713460815616	-4.556633027003516	-0.07952824912632703	0	0	0	-4.045293161686636	1.103642747102688	1.009876240570138	4.139274468913788	0.07224396812628528	0	0	0	0	0	0	42.9182065200239	-42.9182065200239	4.977376462547727	84.6876099454671	85.02262381090289	0	0	42.9182065200239	-42.9182065200239	4.977376462547727	84.6876099454671	85.02262381089824	0	0
41.18000000000084	-1.460581878246478	2.291062748333127	-85.48862949927464	0	0.9399999999999999	0	20.0528264625978	7.180705150771765	-6.102244891803878	-4.494779460971456	-0.07844870074496786	0	0	0	-4.502903076313929	1.18842507464829	0.9045383420022968	4.238527515890516	0.07397626058866578	0	0	0	0	0	0	42.91846855853922	-42.91846855853922	4.977382199974665	84.68768917022355	85.02261807347618	0	0	42.91846855853922	-42.91846855853922	4.977382199974665	84.68768917022355	85.02261807347153	0	0
41.20000000000084	-1.245839895714969	2.288507718102895	-84.98947902066938	0	0.9399999999999999	0	19.66506804845741	7.05957317263088	-5.283790289206351	-3.120236908203096	-0.05445840749039209	0	0	0	-5.019297366582018	1.309081299857162	0.9979772670326654	4.657182258620653	0.08128316427839646	0	0	0	0	0	0	42.91887159569669	-42.91887159569669	4.977391026721377	84.68781105358144	85.02260924672977	0	0	42.91887159569669	-42.91887159569669	4.977391026721377	84.68781105358144	85.02260924672514	0	0
